<?xml version="1.0" encoding="utf-8"?>
<!-- Generator: Adobe Illustrator 17.0.0, SVG Export Plug-In . SVG Version: 6.00 Build 0)  -->
<!DOCTYPE svg PUBLIC "-//W3C//DTD SVG 1.1//EN" "http://www.w3.org/Graphics/SVG/1.1/DTD/svg11.dtd">
<svg version="1.1" id="Layer_1" xmlns="http://www.w3.org/2000/svg" xmlns:xlink="http://www.w3.org/1999/xlink" x="0px" y="0px"
	 width="554.296px" height="325.524px" viewBox="0 0 554.296 325.524" enable-background="new 0 0 554.296 325.524"
	 xml:space="preserve">
<polygon fill="#27AAE1" stroke="#000000" stroke-miterlimit="10" points="0,207.171 192.301,207.171 196.029,213.509 
	196.029,262.346 189.318,267.938 0,269.43 "/>
<path fill="#1DB78B" stroke="#000000" stroke-miterlimit="10" d="M196.029,213.509v-6.338l20.504-11.93h120.789
	c0,0,14.912,49.21,0,79.408h-127.5l-13.794-11.184V213.509z"/>
<path fill="#FFFFFF" stroke="#000000" stroke-miterlimit="10" d="M29.758,207.171c0,0,2.982-28.706,57.039-36.908
	c0,0,35.789-7.456,24.605,27.96s-53.133,43.215-45.482,8.947l11.557-20.504l-13.794,20.504H29.758z"/>
<path fill="#FFFFFF" stroke="#000000" stroke-miterlimit="10" d="M6.652,269.377c0,0-5.6-20.079,12.294-23.434
	c17.895-3.355,10.811,23.252,10.811,23.252l5.219,11.419c0,0-2.982-35.789,13.794-42.313c16.776-6.524,11.935,30.651,11.935,30.651
	l0.648,5.697c0,0,17.43,32.434,0,35.417s-16.311-3.355-21.158-11.184c0,0-9.76,29.824-24.978,5.965
	C15.218,304.846,7.779,290.948,6.652,269.377z"/>
<path fill="#FFFFFF" stroke="#000000" stroke-miterlimit="10" d="M65.174,253.399c0,0-1.118,11.276,0,15.517
	c1.118,4.241,6.639,22.882,6.488,28.474c0,0,18.117,25.724,29.301,27.96c11.184,2.237,12.604-17.895,12.604-17.895
	s21.695,16.031,26.914-8.575c0,0-6.711-18.918-10.811-23.066c0,0,0.373-19.061-9.693-32.109s-21.962,0-21.962,0l4.564,40.636
	L93.88,269.43C93.88,269.43,90.152,237.685,65.174,253.399z"/>
<path fill="#A7D1F0" stroke="#000000" stroke-miterlimit="10" d="M227.717,195.241v-9.693c0,0-14.167-1.491-13.048-10.439
	c1.118-8.947,13.794-11.557,17.895-11.557c4.101,0,21.996,0.373,20.504,13.794c0,0-1.764,8.075-16.403,7.456l-0.746,10.439H227.717z
	"/>
<path fill="#A7D1F0" stroke="#000000" stroke-miterlimit="10" d="M226.717,274.697v9.693c0,0-14.167,1.491-13.048,10.439
	c1.118,8.947,13.794,11.557,17.895,11.557c4.101,0,21.996-0.373,20.504-13.794c0,0-1.764-8.075-16.403-7.456l-0.746-10.439H226.717z
	"/>
<path fill="#A7D1F0" stroke="#000000" stroke-miterlimit="10" d="M267.079,274.697v9.693c0,0-14.167,1.491-13.048,10.439
	c1.118,8.947,13.794,11.557,17.895,11.557s21.996-0.373,20.504-13.794c0,0-1.764-8.075-16.403-7.456l-0.746-10.439H267.079z"/>
<path fill="#A7D1F0" stroke="#000000" stroke-miterlimit="10" d="M307.629,274.697v9.693c0,0-14.167,1.491-13.048,10.439
	c1.118,8.947,13.794,11.557,17.895,11.557c4.101,0,21.996-0.373,20.504-13.794c0,0-1.764-8.075-16.403-7.456l-0.746-10.439H307.629z
	"/>
<path fill="#A7D1F0" stroke="#000000" stroke-miterlimit="10" d="M269.079,195.241v-9.693c0,0-14.167-1.491-13.048-10.439
	c1.118-8.947,13.794-11.557,17.895-11.557s21.996,0.373,20.504,13.794c0,0-1.764,8.075-16.403,7.456l-0.746,10.439H269.079z"/>
<path fill="#A7D1F0" stroke="#000000" stroke-miterlimit="10" d="M311.887,195.241v-9.693c0,0-14.167-1.491-13.048-10.439
	c1.118-8.947,13.794-11.557,17.895-11.557c4.101,0,21.996,0.373,20.504,13.794c0,0-1.764,8.075-16.403,7.456l-0.746,10.439H311.887z
	"/>
<path fill="#FFFFFF" stroke="#000000" stroke-miterlimit="10" d="M129.67,156.097c0,0-69.342,21.623-95.065-73.816
	c0,0-2.982-20.504,17.895-41.754c0,0-5.219-30.943,24.605-37.653s25.724,29.079,25.724,29.079s50.702,24.605,58.903,36.535
	c0,0,4.846-12.303,7.083-24.978s16.403-16.031,30.57-10.439c14.167,5.592,33.925,7.456-4.474,70.46l14.912,15.658
	c0,0,1.864,7.083-29.824,7.829C179.998,127.018,168.441,154.233,129.67,156.097z"/>
<path fill="#EBE845" stroke="#000000" stroke-miterlimit="10" d="M129.67,156.097v46.974c0,0-3.527-7.456-3.814,2.61
	s-1.118,18.714,1.907,23.523c0,0,2.28-8.238,3.398-22.032c0,0,0.373,10.139,3.728,22.032c3.355,11.893,5.592,2.2,5.592-22.032
	c0,0,0.746,13.121,4.846,22.032c0,0,3.728-7.12,3.728-22.032c0,0-2.982-9.32-8.575-2.61h-3.188v-49.194L129.67,156.097z"/>
<polygon fill="#EE2726" stroke="#000000" stroke-miterlimit="10" points="85.727,35.781 92.9,33.91 92.9,44.514 "/>
<g>
	<path fill="#27AAE1" stroke="#000000" stroke-miterlimit="10" d="M244.201,132.294l-0.662-1.599
		c-0.411-0.929-0.922-1.546-1.531-1.851c-1.097-0.579-1.645-1.31-1.645-2.193c0-1.949,2.924-2.924,8.772-2.924
		c2.925,0,5.148,0.236,6.671,0.708c0.518,0.168,0.933,0.434,1.245,0.8c0.312,0.365,0.469,0.769,0.469,1.21
		c0,0.381-0.072,0.67-0.217,0.868c-0.146,0.198-0.545,0.586-1.2,1.165c-0.381,0.32-0.57,0.655-0.57,1.005
		c0,0.533,0.289,1.417,0.867,2.65l1.303,2.787c0.594,1.264,1.017,2.067,1.268,2.41c0.252,0.343,0.537,0.514,0.857,0.514
		c0.35,0,0.65-0.198,0.902-0.594c0.251-0.396,0.574-1.172,0.971-2.33l1.097-3.199c0.305-0.914,0.457-1.599,0.457-2.056
		c0-0.609-0.32-1.013-0.96-1.21c-1.279-0.412-1.919-1.143-1.919-2.193c0-0.914,0.495-1.568,1.485-1.965
		c0.989-0.396,2.619-0.594,4.889-0.594c1.478,0,2.627,0.167,3.449,0.502c1.143,0.457,1.714,1.188,1.714,2.193
		c0,0.442-0.103,0.822-0.309,1.142c-0.205,0.32-0.62,0.747-1.245,1.279c-0.411,0.351-0.728,0.724-0.948,1.12
		s-0.56,1.211-1.017,2.444l-3.998,10.624c-1.995,4.95-3.198,7.897-3.609,8.841s-0.838,1.79-1.279,2.536
		c-0.335,0.548-0.708,0.933-1.119,1.154s-0.96,0.331-1.646,0.331c-0.913,0-1.648-0.198-2.204-0.594
		c-0.557-0.396-1.024-1.051-1.405-1.965l-4.523-10.737c-0.244-0.594-0.427-0.967-0.548-1.12c-0.122-0.152-0.29-0.229-0.503-0.229
		c-0.32,0-0.594,0.191-0.822,0.571c-0.229,0.381-0.663,1.363-1.303,2.947l-3.106,7.722c-0.579,1.401-1.131,2.327-1.656,2.776
		c-0.525,0.449-1.322,0.674-2.388,0.674c-0.96,0-1.718-0.229-2.273-0.686c-0.556-0.457-1.062-1.264-1.519-2.421l-8.407-21.498
		c-0.351-0.883-0.591-1.405-0.72-1.565c-0.13-0.16-0.537-0.422-1.223-0.788c-0.776-0.396-1.165-1.066-1.165-2.01
		c0-2.147,2.665-3.221,7.996-3.221c2.726,0,4.698,0.19,5.917,0.571c1.173,0.381,1.759,1.135,1.759,2.262
		c0,0.351-0.03,0.605-0.091,0.766c-0.062,0.16-0.282,0.514-0.663,1.062c-0.183,0.29-0.273,0.647-0.273,1.074
		c0,0.762,0.51,2.346,1.53,4.752l0.937,2.193c0.396,0.914,0.659,1.466,0.788,1.656c0.13,0.19,0.316,0.286,0.56,0.286
		c0.595,0,1.203-0.845,1.828-2.536l0.937-2.604c0.076-0.183,0.114-0.328,0.114-0.434
		C244.315,132.652,244.277,132.492,244.201,132.294z"/>
	<path fill="#27AAE1" stroke="#000000" stroke-miterlimit="10" d="M288.635,123.544c3.914,0,7.334,1.12,10.258,3.358
		c1.98,1.539,3.587,3.534,4.82,5.986c1.203,2.437,1.806,4.874,1.806,7.311c0,3.595-1.188,6.808-3.564,9.641
		c-2.011,2.407-4.638,4.135-7.882,5.186c-1.995,0.64-3.998,0.959-6.008,0.959c-2.636,0-5.156-0.548-7.562-1.645
		c-2.909-1.325-5.186-3.328-6.831-6.009c-1.599-2.589-2.398-5.445-2.398-8.567c0-3.625,1.028-6.823,3.084-9.595
		c1.828-2.467,4.287-4.28,7.379-5.438C283.807,123.94,286.107,123.544,288.635,123.544z M286.465,130.1
		c-1.279,0-2.292,0.571-3.038,1.713c-0.579,0.854-0.868,1.866-0.868,3.039c0,1.721,0.35,3.712,1.051,5.974
		c0.7,2.262,1.584,4.269,2.649,6.02c0.473,0.747,1.055,1.34,1.748,1.782s1.397,0.662,2.113,0.662c1.157,0,2.091-0.434,2.799-1.302
		c0.708-0.868,1.062-2.01,1.062-3.427c0-1.843-0.298-3.83-0.892-5.962s-1.363-3.953-2.308-5.46c-0.578-0.929-1.249-1.66-2.01-2.193
		C288.011,130.413,287.242,130.131,286.465,130.1z"/>
	<path fill="#27AAE1" stroke="#000000" stroke-miterlimit="10" d="M325.051,123.544c3.914,0,7.334,1.12,10.258,3.358
		c1.98,1.539,3.587,3.534,4.82,5.986c1.203,2.437,1.806,4.874,1.806,7.311c0,3.595-1.188,6.808-3.564,9.641
		c-2.011,2.407-4.638,4.135-7.882,5.186c-1.995,0.64-3.998,0.959-6.008,0.959c-2.636,0-5.156-0.548-7.562-1.645
		c-2.909-1.325-5.186-3.328-6.831-6.009c-1.599-2.589-2.398-5.445-2.398-8.567c0-3.625,1.028-6.823,3.084-9.595
		c1.828-2.467,4.287-4.28,7.379-5.438C320.223,123.94,322.522,123.544,325.051,123.544z M322.881,130.1
		c-1.279,0-2.292,0.571-3.038,1.713c-0.579,0.854-0.868,1.866-0.868,3.039c0,1.721,0.35,3.712,1.051,5.974
		c0.7,2.262,1.584,4.269,2.649,6.02c0.473,0.747,1.055,1.34,1.748,1.782s1.397,0.662,2.113,0.662c1.157,0,2.091-0.434,2.799-1.302
		c0.708-0.868,1.062-2.01,1.062-3.427c0-1.843-0.298-3.83-0.892-5.962s-1.363-3.953-2.308-5.46c-0.578-0.929-1.249-1.66-2.01-2.193
		C324.427,130.413,323.657,130.131,322.881,130.1z"/>
	<path fill="#27AAE1" stroke="#000000" stroke-miterlimit="10" d="M353.494,155.368h-1.646c-0.959,0-2.033,0.046-3.221,0.137
		c-0.746,0.061-1.265,0.091-1.554,0.091c-1.021,0-1.851-0.236-2.49-0.708c-0.64-0.472-0.959-1.088-0.959-1.85
		c0-0.533,0.141-0.948,0.422-1.245c0.282-0.297,0.743-0.537,1.383-0.72c0.608-0.152,1.02-0.4,1.233-0.743
		c0.213-0.343,0.381-1.009,0.503-1.999c0.121-1.142,0.231-3.366,0.331-6.671c0.099-3.305,0.148-6.587,0.148-9.847
		c0-1.279-0.1-2.132-0.297-2.559c-0.198-0.426-0.663-0.769-1.394-1.028c-1.051-0.396-1.576-1.074-1.576-2.033
		c0-0.746,0.361-1.329,1.085-1.748c0.723-0.418,1.732-0.628,3.027-0.628c0.426,0,0.929,0.008,1.508,0.022
		c1.279,0.046,2.208,0.069,2.787,0.069c2.178,0,4.638-0.069,7.379-0.206c0.578-0.03,1.302-0.046,2.17-0.046
		c3.488,0,6.245,0.396,8.271,1.188c3.016,1.188,5.285,3.184,6.808,5.986c1.355,2.467,2.033,5.407,2.033,8.818
		c0,1.721-0.251,3.446-0.754,5.174c-0.502,1.729-1.18,3.225-2.033,4.489c-1.767,2.559-4.203,4.356-7.311,5.392
		c-1.827,0.609-3.777,0.914-5.849,0.914l-2.764-0.091l-2.376-0.069C356.518,155.398,354.896,155.368,353.494,155.368z
		 M358.292,130.603v17.683c0,0.959,0.205,1.641,0.616,2.044c0.411,0.404,1.097,0.605,2.057,0.605c4.447,0,6.671-3.381,6.671-10.144
		c0-3.731-0.519-6.625-1.554-8.681c-1.143-2.27-3.077-3.404-5.803-3.404c-0.731,0-1.245,0.145-1.542,0.434
		C358.44,129.43,358.292,129.918,358.292,130.603z"/>
	<path fill="#27AAE1" stroke="#000000" stroke-miterlimit="10" d="M395.257,123.544c1.568,0,3.624,0.389,6.168,1.165
		c0.305,0.092,0.549,0.137,0.731,0.137c0.151,0,0.608-0.137,1.37-0.411c0.244-0.091,0.503-0.137,0.777-0.137
		c1.02,0,2.098,0.808,3.232,2.422c1.135,1.614,1.702,3.153,1.702,4.615c0,0.853-0.255,1.573-0.766,2.159
		c-0.51,0.587-1.131,0.88-1.861,0.88c-0.609,0-1.104-0.122-1.485-0.366c-0.381-0.243-1.219-0.967-2.513-2.17
		c-1.828-1.706-3.625-2.559-5.392-2.559c-0.854,0-1.535,0.206-2.045,0.617c-0.511,0.411-0.766,0.952-0.766,1.622
		c0,1.325,1.165,2.323,3.495,2.993c3.153,0.929,5.171,1.607,6.055,2.034c3.884,1.889,5.825,4.668,5.825,8.338
		c0,3.244-1.324,5.895-3.975,7.951c-2.711,2.102-6.252,3.152-10.623,3.152c-1.95,0-4.006-0.232-6.169-0.697
		s-3.724-1.009-4.684-1.633c-0.73-0.487-1.39-1.55-1.976-3.187c-0.587-1.637-0.88-3.233-0.88-4.786c0-0.746,0.152-1.31,0.457-1.69
		c0.381-0.487,0.86-0.731,1.439-0.731c0.578,0,1.135,0.297,1.668,0.891c0.319,0.335,1.073,1.409,2.262,3.221
		c0.562,0.853,1.458,1.562,2.684,2.125c1.227,0.564,2.494,0.846,3.805,0.846c1.127,0,2.04-0.209,2.741-0.628
		c0.7-0.419,1.051-0.956,1.051-1.611c0-0.609-0.274-1.134-0.822-1.576c-0.549-0.441-1.439-0.853-2.673-1.234
		c-2.179-0.685-3.839-1.313-4.98-1.885c-1.143-0.571-2.209-1.291-3.198-2.159c-2.407-2.132-3.61-4.554-3.61-7.265
		c0-1.34,0.312-2.646,0.937-3.918c0.625-1.271,1.509-2.372,2.65-3.301C388.448,124.617,391.57,123.544,395.257,123.544z"/>
	<path fill="#27AAE1" stroke="#000000" stroke-miterlimit="10" d="M421.666,124.183h12.04c1.294-0.045,2.475-0.221,3.541-0.525
		c0.457-0.122,0.86-0.183,1.211-0.183c1.233,0,2.433,0.914,3.598,2.741c1.165,1.828,1.748,3.709,1.748,5.643
		c0,1.325-0.404,2.292-1.211,2.901c-0.609,0.457-1.341,0.686-2.193,0.686c-0.808,0-1.508-0.225-2.102-0.674
		s-1.181-1.192-1.759-2.228c-0.503-0.944-0.899-1.561-1.188-1.851c-0.289-0.289-0.64-0.434-1.051-0.434
		c-0.563,0-0.968,0.236-1.211,0.708c-0.244,0.473-0.365,1.249-0.365,2.331v12.793c0,1.31,0.137,2.262,0.411,2.856
		c0.274,0.594,0.792,1.051,1.554,1.371c0.822,0.351,1.382,0.682,1.679,0.994c0.297,0.312,0.445,0.743,0.445,1.291
		c0,1.096-0.742,1.911-2.228,2.444c-1.484,0.533-3.766,0.8-6.842,0.8c-3.777,0-6.58-0.312-8.407-0.937
		c-1.539-0.518-2.308-1.355-2.308-2.513c0-0.625,0.274-1.112,0.822-1.462c0.138-0.076,0.678-0.259,1.622-0.548
		c0.579-0.167,0.979-0.487,1.199-0.959c0.221-0.472,0.4-1.378,0.537-2.719c0.122-1.188,0.236-3.11,0.343-5.769
		c0.106-2.657,0.16-4.961,0.16-6.911c0-1.371-0.106-2.345-0.32-2.924c-0.213-0.579-0.563-0.868-1.051-0.868
		c-0.594,0-1.173,0.427-1.736,1.279c-1.021,1.554-1.858,2.582-2.513,3.084c-0.777,0.594-1.531,0.891-2.262,0.891
		c-0.822,0-1.5-0.308-2.033-0.925c-0.533-0.617-0.8-1.405-0.8-2.364c0-0.944,0.213-1.984,0.64-3.119
		c0.426-1.134,0.997-2.182,1.714-3.141c1.157-1.554,2.299-2.33,3.427-2.33c0.304,0,0.654,0.045,1.051,0.137
		c0.822,0.168,1.496,0.282,2.021,0.343C420.375,124.153,420.98,124.183,421.666,124.183z"/>
	<path fill="#27AAE1" stroke="#000000" stroke-miterlimit="10" d="M462.011,123.544c3.914,0,7.334,1.12,10.258,3.358
		c1.98,1.539,3.587,3.534,4.82,5.986c1.203,2.437,1.806,4.874,1.806,7.311c0,3.595-1.188,6.808-3.564,9.641
		c-2.011,2.407-4.638,4.135-7.882,5.186c-1.995,0.64-3.998,0.959-6.008,0.959c-2.636,0-5.156-0.548-7.562-1.645
		c-2.909-1.325-5.186-3.328-6.831-6.009c-1.599-2.589-2.398-5.445-2.398-8.567c0-3.625,1.028-6.823,3.084-9.595
		c1.828-2.467,4.287-4.28,7.379-5.438C457.183,123.94,459.482,123.544,462.011,123.544z M459.841,130.1
		c-1.279,0-2.292,0.571-3.038,1.713c-0.579,0.854-0.868,1.866-0.868,3.039c0,1.721,0.35,3.712,1.051,5.974
		c0.7,2.262,1.584,4.269,2.649,6.02c0.473,0.747,1.055,1.34,1.748,1.782s1.397,0.662,2.113,0.662c1.157,0,2.091-0.434,2.799-1.302
		c0.708-0.868,1.062-2.01,1.062-3.427c0-1.843-0.298-3.83-0.892-5.962s-1.363-3.953-2.308-5.46c-0.578-0.929-1.249-1.66-2.01-2.193
		C461.387,130.413,460.617,130.131,459.841,130.1z"/>
	<path fill="#27AAE1" stroke="#000000" stroke-miterlimit="10" d="M498.291,123.544c2.224,0,4.371,0.488,6.442,1.462
		c0.975,0.457,1.652,0.685,2.033,0.685c0.274,0,0.716-0.068,1.325-0.206c0.198-0.045,0.419-0.068,0.662-0.068
		c0.792,0,1.485,0.365,2.079,1.097c1.463,1.767,2.193,3.96,2.193,6.58c0,1.843-0.632,3.191-1.896,4.043
		c-0.685,0.457-1.454,0.686-2.307,0.686c-0.777,0-1.409-0.167-1.896-0.503c-0.487-0.334-0.96-0.929-1.416-1.782
		c-0.655-1.203-1.188-2.067-1.6-2.593c-0.411-0.526-0.914-1.001-1.508-1.428c-1.478-1.036-3.023-1.553-4.638-1.553
		c-1.569,0-2.814,0.567-3.735,1.702c-0.922,1.135-1.382,2.654-1.382,4.558c0,2.62,0.662,5.019,1.987,7.196
		c1.797,2.909,4.371,4.363,7.722,4.363c1.233,0,2.456-0.206,3.667-0.617s2.151-0.944,2.821-1.599
		c0.579-0.548,1.051-0.822,1.416-0.822c0.533,0,0.99,0.248,1.371,0.742c0.381,0.495,0.571,1.093,0.571,1.793
		c0,0.883-0.267,1.874-0.8,2.97c-0.533,1.097-1.173,1.958-1.919,2.582c-0.319,0.259-0.982,0.487-1.987,0.685
		c-0.579,0.107-1.348,0.389-2.308,0.845c-2.254,1.082-4.6,1.622-7.036,1.622c-2.544,0-5.08-0.571-7.608-1.713
		c-2.939-1.325-5.262-3.358-6.968-6.1c-1.676-2.665-2.513-5.453-2.513-8.362c0-3.381,1.051-6.465,3.152-9.252
		c1.828-2.421,4.211-4.272,7.151-5.551C493.607,124.031,495.915,123.544,498.291,123.544z"/>
	<path fill="#27AAE1" stroke="#000000" stroke-miterlimit="10" d="M541.537,130.42l-2.444,2.354c-0.898,0.853-1.348,1.63-1.348,2.33
		c0,0.381,0.103,0.762,0.309,1.142c0.205,0.381,0.59,0.899,1.153,1.554l8.544,9.892c0.762,0.884,1.287,1.443,1.577,1.679
		c0.289,0.236,0.723,0.484,1.302,0.743c0.822,0.351,1.405,0.739,1.748,1.165c0.343,0.427,0.514,0.982,0.514,1.667
		c0,1.615-1.15,2.422-3.449,2.422h-8.659c-0.594,0-1.062-0.129-1.404-0.388c-0.343-0.259-0.888-0.898-1.634-1.919
		c-1.188-1.629-2.757-3.503-4.706-5.62c-0.854-0.914-1.451-1.512-1.794-1.793s-0.659-0.423-0.948-0.423
		c-0.883,0-1.324,0.831-1.324,2.49c0,1.356,0.289,2.292,0.868,2.81c0.105,0.076,0.35,0.244,0.73,0.502
		c0.822,0.533,1.233,1.196,1.233,1.988c0,1.005-0.67,1.725-2.01,2.159c-1.341,0.434-3.595,0.651-6.763,0.651
		c-2.817,0-4.874-0.168-6.168-0.503c-0.549-0.152-0.994-0.43-1.337-0.833s-0.514-0.857-0.514-1.359c0-0.807,0.457-1.5,1.37-2.079
		c0.412-0.274,0.705-0.575,0.88-0.902c0.175-0.327,0.339-0.879,0.491-1.656c0.305-1.721,0.457-4.371,0.457-7.95
		c0-4.265-0.16-7.288-0.479-9.07c-0.122-0.731-0.29-1.257-0.503-1.577c-0.214-0.32-0.587-0.632-1.119-0.937
		c-0.854-0.487-1.279-1.165-1.279-2.033c0-0.731,0.266-1.317,0.799-1.759c0.533-0.441,1.386-0.777,2.56-1.005
		c1.553-0.304,3.503-0.457,5.848-0.457c2.392,0,4.166,0.229,5.323,0.685c1.036,0.427,1.554,1.188,1.554,2.285
		c0,0.457-0.08,0.811-0.24,1.062c-0.159,0.251-0.574,0.644-1.245,1.176c-0.243,0.214-0.468,0.724-0.674,1.531
		c-0.205,0.808-0.309,1.599-0.309,2.376c0,1.279,0.29,1.919,0.868,1.919c0.351,0,0.689-0.152,1.017-0.457
		c0.328-0.305,0.986-1.066,1.977-2.285c1.143-1.417,1.714-2.384,1.714-2.901c0-0.274-0.146-0.686-0.435-1.234
		c-0.198-0.38-0.297-0.731-0.297-1.051c0-1.127,0.609-1.923,1.828-2.387c1.218-0.465,3.297-0.697,6.236-0.697
		c2.346,0,4.082,0.152,5.209,0.457c1.386,0.381,2.079,1.188,2.079,2.422c0,0.487-0.146,0.94-0.435,1.359
		c-0.289,0.419-0.647,0.689-1.073,0.811c-0.32,0.106-1.059,0.167-2.216,0.183c-0.808,0.015-1.413,0.111-1.816,0.286
		C542.698,129.419,542.177,129.811,541.537,130.42z"/>
</g>
<g>
	<path fill="#27AAE1" stroke="#000000" stroke-miterlimit="10" d="M445.219,183.518c0.213,0,0.716,0.054,1.508,0.16
		c0.365,0.061,0.654,0.091,0.868,0.091c1.294,0,2.041-1.02,2.238-3.062c0.106-1.157,0.16-4.447,0.16-9.869
		c0-0.822-0.168-1.394-0.503-1.713s-0.944-0.48-1.827-0.48c-0.214,0-0.518,0.023-0.914,0.069c-0.305,0.031-0.571,0.045-0.8,0.045
		c-0.518,0-0.937-0.141-1.256-0.422c-0.32-0.282-0.48-0.651-0.48-1.108c0-0.487,0.244-0.971,0.731-1.451
		c0.487-0.479,1.165-0.902,2.033-1.268c4.311-1.828,8.895-2.742,13.753-2.742c1.325,0,2.288,0.156,2.891,0.468
		c0.602,0.312,0.902,0.811,0.902,1.497c0,0.396-0.1,0.705-0.297,0.925c-0.198,0.221-0.595,0.461-1.188,0.72
		c-0.944,0.411-1.484,0.914-1.622,1.508c-0.137,0.594-0.243,2.909-0.319,6.945c0.121,4.082,0.189,6.268,0.205,6.557
		c0.016,0.29,0.076,0.693,0.183,1.211c0.184,0.808,0.525,1.363,1.028,1.668s1.386,0.487,2.65,0.548
		c1.432,0.061,2.147,0.647,2.147,1.759c0,1.158-1.014,1.919-3.039,2.285c-2.817,0.502-5.711,0.754-8.681,0.754
		c-1.95,0-3.793-0.114-5.529-0.343c-2.178-0.304-3.868-0.677-5.071-1.119c-1.173-0.426-1.759-1.066-1.759-1.919
		c0-0.457,0.189-0.853,0.57-1.188C444.183,183.709,444.655,183.533,445.219,183.518z"/>
	<path fill="#27AAE1" stroke="#000000" stroke-miterlimit="10" d="M481.521,161.769c3.046,0,5.826,0.693,8.339,2.079
		c3.32,1.843,4.98,4.828,4.98,8.956c0,3.335-1.082,6.838-3.244,10.509c-2.392,4.067-5.217,7.303-8.476,9.709
		c-0.762,0.548-1.417,0.823-1.965,0.823c-0.93,0-2.125-0.393-3.587-1.177c-1.462-0.785-2.193-1.42-2.193-1.908
		c0-0.32,0.449-0.777,1.348-1.371c1.112-0.731,2.071-1.736,2.879-3.016c0.746-1.173,1.119-2.117,1.119-2.833
		c0-0.579-0.305-0.868-0.913-0.868c-0.214,0-0.731,0.046-1.554,0.137c-0.122,0.015-0.335,0.023-0.64,0.023
		c-2.438,0-4.395-0.701-5.871-2.102c-1.112-1.036-1.977-2.307-2.594-3.815c-0.616-1.508-0.925-3.077-0.925-4.707
		c0-3.259,1.241-5.78,3.724-7.562C474.583,162.728,477.774,161.769,481.521,161.769z M481.224,168.302
		c-0.655,0-1.203,0.274-1.645,0.823c-0.442,0.548-0.663,1.226-0.663,2.033c0,1.569,0.381,2.921,1.143,4.055
		c0.762,1.135,1.668,1.702,2.719,1.702c0.624,0,1.131-0.229,1.52-0.686c0.388-0.457,0.582-1.051,0.582-1.782
		c0-0.822-0.175-1.755-0.525-2.798c-0.351-1.043-0.746-1.831-1.188-2.365C482.617,168.645,481.97,168.318,481.224,168.302z"/>
	<path fill="#27AAE1" stroke="#000000" stroke-miterlimit="10" d="M507.085,158.251c0.654,0,1.729,0.236,3.221,0.708
		c0.808,0.259,1.485,0.571,2.033,0.937c0.549,0.366,0.823,0.693,0.823,0.982c0,0.229-0.088,0.461-0.263,0.697
		c-0.176,0.236-0.735,0.888-1.68,1.954c-0.609,0.655-1.153,1.447-1.634,2.376c-0.479,0.929-0.719,1.63-0.719,2.102
		c0,0.229,0.068,0.423,0.205,0.583c0.137,0.16,0.305,0.24,0.503,0.24c0.167,0,0.716-0.167,1.645-0.503
		c1.265-0.457,2.452-0.685,3.564-0.685c1.919,0,3.662,0.609,5.231,1.828c2.208,1.706,3.312,3.99,3.312,6.854
		c0,2.27-0.67,4.447-2.011,6.534c-2.452,3.823-6.1,5.734-10.942,5.734c-4.021,0-7.266-1.157-9.732-3.473
		c-1.371-1.294-2.43-2.924-3.176-4.889c-0.625-1.629-0.937-3.267-0.937-4.912c0-3.853,1.546-7.798,4.638-11.834
		c1.462-1.904,2.639-3.251,3.529-4.043C505.589,158.647,506.384,158.251,507.085,158.251z M509.575,174.106
		c-0.671,0-1.199,0.24-1.588,0.719c-0.389,0.48-0.583,1.131-0.583,1.954c0,1.264,0.449,2.517,1.349,3.758
		c0.898,1.242,1.812,1.862,2.741,1.862c0.624,0,1.127-0.187,1.508-0.56c0.381-0.373,0.571-0.864,0.571-1.473
		c0-1.021-0.229-2.083-0.686-3.187s-1.013-1.923-1.668-2.456C510.732,174.326,510.184,174.121,509.575,174.106z"/>
	<path fill="#27AAE1" stroke="#000000" stroke-miterlimit="10" d="M537.675,161.769c3.046,0,5.826,0.693,8.339,2.079
		c3.32,1.843,4.98,4.828,4.98,8.956c0,3.335-1.082,6.838-3.244,10.509c-2.392,4.067-5.217,7.303-8.476,9.709
		c-0.762,0.548-1.417,0.823-1.965,0.823c-0.93,0-2.125-0.393-3.587-1.177c-1.462-0.785-2.193-1.42-2.193-1.908
		c0-0.32,0.449-0.777,1.348-1.371c1.112-0.731,2.071-1.736,2.879-3.016c0.746-1.173,1.119-2.117,1.119-2.833
		c0-0.579-0.305-0.868-0.913-0.868c-0.214,0-0.731,0.046-1.554,0.137c-0.122,0.015-0.335,0.023-0.64,0.023
		c-2.438,0-4.395-0.701-5.871-2.102c-1.112-1.036-1.977-2.307-2.594-3.815c-0.616-1.508-0.925-3.077-0.925-4.707
		c0-3.259,1.241-5.78,3.724-7.562C530.737,162.728,533.929,161.769,537.675,161.769z M537.378,168.302
		c-0.655,0-1.203,0.274-1.645,0.823c-0.442,0.548-0.663,1.226-0.663,2.033c0,1.569,0.381,2.921,1.143,4.055
		c0.762,1.135,1.668,1.702,2.719,1.702c0.624,0,1.131-0.229,1.52-0.686c0.388-0.457,0.582-1.051,0.582-1.782
		c0-0.822-0.175-1.755-0.525-2.798c-0.351-1.043-0.746-1.831-1.188-2.365C538.771,168.645,538.124,168.318,537.378,168.302z"/>
</g>
</svg>
